# 3ds Max Wavefront OBJ Exporter v0.99 - (c)2007 guruware
# File Created: 30.11.2022 21:26:22

mtllib Diamond.mtl

#
# object Pyramid001
#

v  216.9177 20.0000 -293.9187
v  206.9483 1.4079 -283.9492
v  226.8872 1.4079 -283.9492
v  226.8872 1.4079 -303.8881
v  206.9483 1.4079 -303.8881
v  215.8903 -6.8831 -292.8912
v  216.9177 -6.8831 -293.9187
v  217.9451 -6.8831 -292.8912
v  217.9451 -6.8831 -294.9461
v  215.8903 -6.8831 -294.9461
v  226.9177 0.0000 -283.9187
v  206.9177 0.0000 -283.9187
v  206.9177 0.0000 -303.9187
v  226.9177 0.0000 -303.9187
# 14 vertices

vn 0.0000 0.4726 0.8813
vn 0.8813 0.4726 -0.0000
vn 0.0000 0.4726 -0.8813
vn -0.8813 0.4726 -0.0000
vn 0.0000 -1.0000 -0.0000
vn 0.0000 -0.7934 0.6087
vn -0.6087 -0.7934 -0.0000
vn 0.0000 -0.7934 -0.6087
vn 0.6087 -0.7934 -0.0000
vn 0.0000 0.0217 0.9998
vn 0.9998 0.0217 -0.0000
vn 0.0000 0.0217 -0.9998
vn -0.9998 0.0217 -0.0000
# 13 vertex normals

vt 0.7693 0.3960 0.0000
vt 0.5936 0.0682 0.0000
vt 0.9451 0.0682 0.0000
vt 0.7240 0.5558 0.0000
vt 0.9075 0.8982 0.0000
vt 0.5404 0.8982 0.0000
vt 0.4988 0.0567 0.0000
vt 0.6757 0.3867 0.0000
vt 0.3219 0.3867 0.0000
vt 0.1981 0.3781 0.0000
vt 0.0438 0.0902 0.0000
vt 0.3525 0.0902 0.0000
vt 0.2252 0.7588 0.0000
vt 0.2440 0.7400 0.0000
vt 0.2629 0.7588 0.0000
vt 0.2629 0.7211 0.0000
vt 0.2252 0.7211 0.0000
vt 0.4274 0.9233 0.0000
vt 0.0607 0.9233 0.0000
vt 0.0607 0.5566 0.0000
vt 0.4274 0.5566 0.0000
vt 0.5931 0.0434 0.0000
vt 0.9081 0.9241 0.0000
vt 0.6763 0.4117 0.0000
vt 0.0433 0.0684 0.0000
vt 0.9456 0.0434 0.0000
vt 0.5398 0.9241 0.0000
vt 0.3214 0.4117 0.0000
vt 0.3530 0.0684 0.0000
# 29 texture coords

o Pyramid001
g Pyramid001
usemtl wire_176026026
s 4
f 1/1/1 2/2/1 3/3/1 
s 2
f 1/4/2 3/5/2 4/6/2 
s 16
f 1/7/3 4/8/3 5/9/3 
s 32
f 1/10/4 5/11/4 2/12/4 
s 8
f 6/13/5 7/14/5 8/15/5 
f 8/15/5 7/14/5 9/16/5 
f 9/16/5 7/14/5 10/17/5 
f 10/17/5 7/14/5 6/13/5 
s off
f 11/18/6 6/13/6 8/15/6 
f 12/19/7 10/17/7 6/13/7 
f 13/20/8 9/16/8 10/17/8 
f 14/21/9 8/15/9 9/16/9 
f 12/22/10 3/3/10 2/2/10 
f 11/23/11 4/6/11 3/5/11 
f 14/24/12 5/9/12 4/8/12 
f 13/25/13 2/12/13 5/11/13 
f 11/18/6 12/19/6 6/13/6 
f 12/19/7 13/20/7 10/17/7 
f 13/20/8 14/21/8 9/16/8 
f 14/21/9 11/18/9 8/15/9 
f 12/22/10 11/26/10 3/3/10 
f 11/23/11 14/27/11 4/6/11 
f 14/24/12 13/28/12 5/9/12 
f 13/25/13 12/29/13 2/12/13 
# 24 faces

